<?xml version="1.0" encoding="utf-8"?>
<!-- Generator: Adobe Illustrator 19.2.1, SVG Export Plug-In . SVG Version: 6.00 Build 0)  -->
<svg version="1.1" id="Layer_1" xmlns="http://www.w3.org/2000/svg" xmlns:xlink="http://www.w3.org/1999/xlink" x="0px" y="0px"
	 viewBox="0 0 140 40" style="enable-background:new 0 0 140 40;" xml:space="preserve">
<style type="text/css">
	.st0{fill:#2C3D4F;}
	.st1{fill-rule:evenodd;clip-rule:evenodd;fill:#2C3D4F;}
</style>
<g>
	<g>
		<path class="st0" d="M19.5,2C9.3,2,1,10.3,1,20.5S9.3,39,19.5,39S38,30.7,38,20.5S29.7,2,19.5,2z M28.8,30.7
			c-0.7,1.5-2.1,1.7-3.5,1.6c-1.9-0.1-2.7-2.3-2.4-3.8c0.4-1.5,3.6-2.5,4.8-1.5C29,28.1,29.5,29.3,28.8,30.7z M27.7,19.2
			c-3.1,2-14,5.5-9.8,6.9c0,0,1.6,0.2,1.6,0.9c0,1.2-0.9,1.4-1.3,1.3c-1-0.3-2,0.2-4.9,1.2c-4,1.4-6.3-3.2-2.6-4.9
			c0.1-0.1,8.8-4.5,8.9-4.6c4.1-2.1,0.9-5.1-2.8-3.5c-2.6,1.4-5.2,0.3-6.4-2.2c-2.1-4.7,5.2-7.2,7.5-3.1c1.4,2,4.8,2.6,6.6,1.7
			C29.2,10.6,32.2,16.5,27.7,19.2z"/>
	</g>
	<g>
		<g>
			<path class="st1" d="M92.7,30.7c1.3,0.1,2.5-0.1,3.2-1.4c0.6-1.2,0.2-2.3-1-3.3c-1.1-0.9-4,0-4.3,1.3
				C90.3,28.6,91,30.6,92.7,30.7z"/>
			<path class="st1" d="M87.5,25.9c0-0.6-1.5-0.8-1.5-0.8c-3.8-1.2,6-4.3,8.8-6.2c4-2.4,1.3-7.8-2.9-5.7c-1.6,0.8-4.7,0.2-5.9-1.5
				c-2.1-3.7-8.6-1.4-6.8,2.8c1.1,2.2,3.4,3.2,5.7,2c3.3-1.4,6.2,1.2,2.5,3.1c-0.1,0-7.9,4.1-8,4.1c-3.3,1.6-1.2,5.7,2.3,4.4
				c2.6-0.9,3.5-1.4,4.4-1.1C86.7,27.2,87.5,27,87.5,25.9z"/>
		</g>
		<path class="st0" d="M45.7,31c0,0-0.3,0-0.3-0.3c0.1-0.4,3.9-18.3,3.9-18.3c1.5-1.3,4.4-2,8.8-2l1.1,0c0,0,0.6,0,0.5,0.5
			c-0.1,0.4-0.6,2.9-0.7,3.4c-0.1,0.5-0.7,0.4-0.7,0.4h-1c-1.3,0-2.4,0.2-3.3,0.7c0,0-3.1,14.6-3.2,15.1C50.6,31,50.1,31,50.1,31
			 M50.1,31"/>
		<path class="st0" d="M73.4,30c-2.4,0.6-5,1-7.6,1c-5,0-7.5-1.8-7.5-5.3c0-0.6,0.1-1.3,0.2-2l1.2-5.9c1.1-5,4.4-7.5,9.9-7.5
			c4.6,0,6.9,1.8,6.9,5.3c0,0.7-0.1,1.4-0.3,2.3l-0.9,4.5H64l-0.3,1.4c-0.1,0.3-0.1,0.6-0.1,0.9c0,1.5,1,2.2,3.1,2.2
			c0.5,0,1,0,1.5,0c2,0,4-0.2,5.9-0.6c0,0,0.5-0.2,0.4,0.4c-0.1,0.5-0.5,2.6-0.6,3C73.7,30,73.4,30,73.4,30z M64.7,18.9h6.1l0.2-1.2
			c0.1-0.4,0.1-0.8,0.1-1.1c0-1.4-0.8-2.2-2.4-2.2c-2.1,0.1-3.4,1.2-3.8,3.3L64.7,18.9z"/>
		<path class="st0" d="M112.1,30.8l-7.3,0.2c-4.6,0-6.9-1.8-6.9-5.3c0-0.7,0.1-1.4,0.3-2.3l1.2-5.7c1.1-5,3.7-7.5,8-7.5
			c1.8,0,3.4,0.4,4.7,1.3c0,0,1.5-6.9,1.4-6.3c-0.1,0.3,0-0.5,0.6-0.5c0.5,0,3.8,0,4.3,0c0.5,0,0.4,0.4,0.4,0.4s-5.1,23.8-5.3,24.8
			C113.1,30.9,112.1,30.8,112.1,30.8z M111.2,15.1c-1-0.4-2.1-0.6-3.3-0.6c-1.8,0-2.9,1-3.4,3.1l-1.3,6.1c-0.1,0.4-0.1,0.8-0.1,1.1
			c0,1.3,0.7,2,2.2,2h3.4L111.2,15.1z"/>
		<path class="st0" d="M115.7,37c0.1-0.5,0.6-2.7,0.6-3c0.1-0.5,0.5-0.3,0.5-0.3c1,0.3,2.2,0.5,3.6,0.5c0.7,0,1.5,0,2.3-0.1
			c2,0,3.3-1,3.7-3.1l0.3-1.2c-1.4,0.8-2.9,1.2-4.5,1.2c-0.2,0-0.5,0-0.7,0c-3.4-0.1-5.1-1.7-5.1-4.9c0-0.8,0.1-1.7,0.3-2.6
			l2.7-12.4c0,0,0-0.6,0.7-0.6c0.5,0,3.4,0,4,0c0.6,0,0.5,0.5,0.5,0.5l-2.7,12.5c-0.1,0.4-0.1,0.8-0.1,1.2c0,1.4,0.7,2.1,2.1,2.1
			c1.2,0,2.4-0.2,3.6-0.6l3.2-15.1c0,0,0.1-0.5,0.7-0.5c0.5,0,3.9,0,4.3,0c0.4,0,0.3,0.4,0.3,0.4L131.7,31c-1,4.9-4.3,7.3-9.8,7.3
			c-0.4,0-0.8,0-1.1,0c-1.9,0-3.4-0.3-4.7-0.7C116,37.6,115.6,37.5,115.7,37z"/>
		<path class="st0" d="M50.1,31"/>
		<path class="st0" d="M50.7,30.5"/>
		<path class="st0" d="M50.1,31"/>
		<line class="st0" x1="50.1" y1="31" x2="50.7" y2="30.5"/>
	</g>
</g>
</svg>
