<?xml version="1.0" standalone="no"?>
<!DOCTYPE svg PUBLIC "-//W3C//DTD SVG 20010904//EN"
 "http://www.w3.org/TR/2001/REC-SVG-20010904/DTD/svg10.dtd">
<svg version="1.0" xmlns="http://www.w3.org/2000/svg"
 width="1000.000000pt" height="1000.000000pt" viewBox="0 0 1000.000000 1000.000000"
 preserveAspectRatio="xMidYMid meet">
<metadata>
Created by potrace 1.11, written by Peter Selinger 2001-2013
</metadata>
<g transform="translate(0.000000,1000.000000) scale(0.100000,-0.100000)"
fill="#000000" stroke="none">
<path d="M0 5000 l0 -5000 5000 0 5000 0 0 5000 0 5000 -5000 0 -5000 0 0
-5000z m9500 0 l0 -4500 -4500 0 -4500 0 0 4500 0 4500 4500 0 4500 0 0 -4500z"/>
<path d="M3498 7487 c-56 -16 -147 -70 -197 -117 -25 -23 -49 -62 -70 -113
-30 -72 -33 -92 -41 -240 -6 -102 -5 -300 1 -532 16 -560 -18 -2155 -60 -2765
-16 -243 -14 -826 4 -911 25 -120 99 -235 169 -264 65 -27 200 -48 274 -42
102 8 224 50 257 89 37 43 71 114 96 200 22 70 23 96 29 608 6 493 8 544 29
650 43 226 113 408 186 483 47 49 142 109 205 130 42 15 74 18 137 15 147 -8
255 -78 408 -267 33 -41 63 -79 67 -85 3 -6 25 -45 49 -86 23 -41 68 -104 100
-139 32 -34 68 -84 80 -110 13 -25 29 -50 36 -54 20 -12 121 -172 151 -237 14
-30 38 -69 53 -87 33 -38 103 -158 114 -193 4 -14 43 -61 86 -106 45 -47 81
-92 85 -110 3 -16 19 -42 34 -59 37 -40 141 -190 202 -290 106 -176 344 -305
563 -305 58 0 92 6 123 20 66 30 145 111 178 183 27 58 29 71 29 187 l0 125
-35 52 c-19 29 -47 71 -62 95 -15 24 -65 91 -112 151 -47 59 -86 112 -86 117
0 5 -31 43 -70 84 -38 40 -70 77 -70 81 0 4 -24 38 -53 74 -30 36 -60 77 -67
91 -7 14 -38 54 -68 90 -31 36 -68 93 -84 127 -15 34 -41 77 -56 95 -35 40
-110 151 -119 175 -12 32 -105 177 -153 239 -26 33 -56 76 -65 95 -10 19 -42
68 -70 109 -29 41 -67 104 -85 140 -18 36 -41 77 -51 91 -51 73 -74 323 -45
497 31 182 57 239 168 360 45 50 84 108 118 173 49 96 86 139 119 139 23 0
207 190 267 275 52 74 299 329 399 412 59 49 60 51 80 134 26 111 27 250 1
298 -31 57 -104 119 -194 163 -84 42 -88 43 -186 43 -180 -1 -309 -52 -390
-155 -25 -32 -46 -62 -46 -67 0 -4 -144 -152 -320 -328 -177 -176 -340 -345
-363 -375 -23 -30 -62 -75 -87 -100 -25 -25 -61 -64 -80 -86 -69 -77 -224
-209 -272 -231 -26 -12 -67 -35 -91 -51 -149 -103 -334 -147 -458 -111 -66 20
-131 89 -157 170 -21 62 -22 80 -21 499 0 573 -12 662 -105 756 -28 27 -77 63
-109 79 -50 24 -73 29 -155 32 -60 2 -115 -2 -144 -10z"/>
</g>
</svg>
