<?xml version="1.0" standalone="no"?>
<!DOCTYPE svg PUBLIC "-//W3C//DTD SVG 20010904//EN"
 "http://www.w3.org/TR/2001/REC-SVG-20010904/DTD/svg10.dtd">
<svg version="1.0" xmlns="http://www.w3.org/2000/svg"
 width="1000.000000pt" height="1000.000000pt" viewBox="0 0 1000.000000 1000.000000"
 preserveAspectRatio="xMidYMid meet">
<metadata>
Created by potrace 1.11, written by Peter Selinger 2001-2013
</metadata>
<g transform="translate(0.000000,1000.000000) scale(0.100000,-0.100000)"
fill="#000000" stroke="none">
<path d="M0 5000 l0 -5000 5000 0 5000 0 0 5000 0 5000 -5000 0 -5000 0 0
-5000z m3274 3305 c75 -7 130 -31 222 -98 87 -62 125 -119 153 -228 35 -136
42 -283 44 -874 l2 -570 36 -76 c43 -89 92 -142 162 -175 142 -65 375 -26 577
98 47 28 123 71 169 95 61 32 110 68 176 131 50 48 114 105 142 127 28 22 70
66 94 98 24 32 62 75 84 95 22 20 57 59 79 87 21 27 239 251 484 497 245 246
443 451 439 454 -8 8 67 104 120 155 127 122 432 185 619 128 137 -41 295
-159 344 -255 23 -45 25 -60 25 -189 0 -104 -4 -153 -17 -190 -9 -27 -19 -67
-23 -88 -5 -32 -18 -47 -82 -100 -128 -104 -467 -453 -534 -549 -33 -47 -124
-152 -202 -232 -112 -116 -148 -146 -168 -146 -37 0 -93 -65 -136 -158 -46
-101 -88 -162 -183 -266 -167 -183 -229 -397 -217 -746 6 -164 23 -277 50
-328 87 -165 145 -266 210 -360 42 -61 86 -131 98 -154 12 -24 41 -67 65 -96
54 -66 138 -194 189 -287 52 -95 119 -197 180 -275 28 -36 63 -94 78 -130 18
-43 56 -101 111 -167 45 -55 86 -107 89 -116 3 -8 36 -54 74 -102 37 -47 74
-99 82 -113 8 -15 52 -67 98 -116 47 -49 88 -99 93 -112 5 -12 67 -96 139
-187 71 -90 141 -188 156 -218 15 -30 40 -70 55 -89 15 -19 33 -53 39 -75 27
-97 4 -298 -46 -404 -38 -79 -141 -184 -221 -223 -64 -32 -71 -33 -177 -32
-220 3 -434 91 -628 259 -39 34 -76 80 -118 150 -87 145 -196 303 -256 372
-29 33 -53 68 -53 78 0 30 -22 59 -120 160 -72 74 -99 109 -105 135 -4 19 -17
49 -30 65 -12 17 -34 53 -48 81 -14 27 -46 75 -71 106 -25 31 -57 82 -71 113
-38 87 -183 313 -205 320 -10 3 -24 21 -30 39 -15 46 -80 137 -151 214 -33 35
-73 89 -89 122 -16 32 -34 61 -39 64 -5 4 -15 23 -22 44 -6 20 -35 62 -63 92
-29 30 -65 73 -81 95 -153 209 -340 318 -541 317 -132 0 -238 -45 -383 -161
-118 -94 -212 -315 -278 -656 l-27 -140 -7 -690 c-5 -597 -8 -699 -23 -760
-45 -189 -86 -287 -150 -361 -31 -36 -49 -46 -147 -79 -149 -49 -252 -56 -397
-26 -163 34 -206 54 -259 119 -57 72 -106 176 -128 272 -14 65 -17 140 -16
570 0 272 5 565 10 650 6 85 15 261 20 390 5 129 13 260 17 290 3 30 10 210
14 400 33 1365 39 1947 30 2890 -5 581 -6 565 61 727 37 89 70 128 153 187 82
59 150 91 216 105 97 20 102 20 244 6z"/>
</g>
</svg>
